# xmcd
#
# Track frame offsets: 
#        150
#        19020
#        37190
#        65552
#        88550
#        109737
#        133217
#        146582
#        174422
#        195155
#        215325
#        235182
#
# Disc length: 3455 seconds
#
# Revision: 0
# Processed by: cddbd v1.5.1PL0 Copyright (c) Steve Scherf et al.
# Submitted via: ExactAudioCopy v0.95a3
#
DISCID=a50d7d0c
DTITLE=Ulli Kron and Marc Galperin - Boogie Woogie Thunderstorm
DYEAR=1992
DGENRE=Blues
TTITLE0=Foot Pedal Boogie
TTITLE1=Boogie Woogie Thunderstorm
TTITLE2=Pensacola Blues
TTITLE3=Pinetop's Boogie Woogie
TTITLE4=Walkin' Over 176
TTITLE5=Beer Cat Crown
TTITLE6=Texas Stomp
TTITLE7=The Sheik Of Araby
TTITLE8=Woogie!
TTITLE9=Deep River Blues
TTITLE10=Gut-Bucket Blues
TTITLE11=Sixth Avenue Express
EXTD=
EXTT0=
EXTT1=
EXTT2=
EXTT3=
EXTT4=
EXTT5=
EXTT6=
EXTT7=
EXTT8=
EXTT9=
EXTT10=
EXTT11=
PLAYORDER=
